<svg width="36" height="36" viewBox="0 0 36 36" fill="none" xmlns="http://www.w3.org/2000/svg">
<path d="M1.5 14.9999C1.10218 14.9999 0.720645 14.8419 0.43934 14.5606C0.158036 14.2793 0 13.8978 0 13.4999V1.50293C0 1.1051 0.158036 0.723574 0.43934 0.44227C0.720645 0.160965 1.10218 0.00292969 1.5 0.00292969H13.5C13.8978 0.00292969 14.2794 0.160965 14.5607 0.44227C14.842 0.723574 15 1.1051 15 1.50293V13.4999C15 13.8978 14.842 14.2793 14.5607 14.5606C14.2794 14.8419 13.8978 14.9999 13.5 14.9999H1.5ZM22.5 14.9999C22.1022 14.9999 21.7206 14.8419 21.4393 14.5606C21.158 14.2793 21 13.8978 21 13.4999V1.50293C21 1.1051 21.158 0.723574 21.4393 0.44227C21.7206 0.160965 22.1022 0.00292969 22.5 0.00292969H34.497C34.8948 0.00292969 35.2764 0.160965 35.5577 0.44227C35.839 0.723574 35.997 1.1051 35.997 1.50293V13.4999C35.997 13.8978 35.839 14.2793 35.5577 14.5606C35.2764 14.8419 34.8948 14.9999 34.497 14.9999H22.5ZM1.5 35.9999C1.10218 35.9999 0.720645 35.8419 0.43934 35.5606C0.158036 35.2793 0 34.8978 0 34.4999V22.4999C0 22.1021 0.158036 21.7206 0.43934 21.4393C0.720645 21.158 1.10218 20.9999 1.5 20.9999H13.5C13.8978 20.9999 14.2794 21.158 14.5607 21.4393C14.842 21.7206 15 22.1021 15 22.4999V34.4999C15 34.8978 14.842 35.2793 14.5607 35.5606C14.2794 35.8419 13.8978 35.9999 13.5 35.9999H1.5ZM22.5 35.9999C22.1022 35.9999 21.7206 35.8419 21.4393 35.5606C21.158 35.2793 21 34.8978 21 34.4999V22.4999C21 22.1021 21.158 21.7206 21.4393 21.4393C21.7206 21.158 22.1022 20.9999 22.5 20.9999H34.497C34.8948 20.9999 35.2764 21.158 35.5577 21.4393C35.839 21.7206 35.997 22.1021 35.997 22.4999V34.4999C35.997 34.8978 35.839 35.2793 35.5577 35.5606C35.2764 35.8419 34.8948 35.9999 34.497 35.9999H22.5Z" fill="white"/>
</svg>
